<svg width="92" height="60" viewBox="0 0 92 60" fill="none" xmlns="http://www.w3.org/2000/svg">
<path fill-rule="evenodd" clip-rule="evenodd" d="M90.618 0C90.618 0.0633953 90.626 0.134703 90.6339 0.20602C90.6418 0.277338 90.6498 0.348645 90.6498 0.412041C90.7132 4.8026 90.7766 9.18523 90.84 13.5679L90.9527 21.364L91.0301 26.7195V27.1949C90.6498 27.1949 90.2694 27.2028 89.8891 27.2108C89.5087 27.2187 89.1284 27.2266 88.748 27.2266C88.748 27.1791 88.7401 27.1236 88.7322 27.0682C88.7242 27.0127 88.7163 26.9572 88.7163 26.9097C88.5895 18.0032 88.4628 9.09668 88.336 0.221874V0C88.8429 0.0211253 89.3499 0.0140835 89.8568 0.00704177H89.8574C90.1109 0.00352089 90.3645 0 90.618 0ZM35.5308 0.760705C37.4326 3.7084 38.5102 6.94137 39.049 10.3645C39.3977 12.6466 39.4928 14.897 39.2709 17.1791C38.9539 20.8558 38.0031 24.3423 36.1647 27.5436C35.9746 27.8605 35.7844 28.019 35.3723 28.019C34.3105 28.019 33.2566 28.0349 32.2028 28.0507C31.1489 28.0666 30.095 28.0824 29.0332 28.0824C28.9705 23.5836 28.9078 19.0926 28.8451 14.6017C28.781 10.0118 28.7169 5.42199 28.6528 0.8241C30.9666 0.8241 33.2487 0.792403 35.5308 0.760705ZM31.4432 14.5434L31.4432 14.5449L31.4434 14.5551C31.4984 18.3563 31.5534 22.1536 31.6005 25.9588C32.0162 25.9588 32.4319 25.9507 32.8435 25.9427L32.8447 25.9427C33.2487 25.9349 33.6488 25.9271 34.0411 25.9271C34.3898 25.9271 34.5482 25.832 34.7067 25.5151C35.8161 23.0111 36.45 20.3804 36.7352 17.6862C37.0522 14.5483 36.862 11.4422 36.1647 8.36768C35.7527 6.59272 35.1822 4.88115 34.3581 3.26467C34.2947 3.13788 34.1045 2.94771 33.946 2.94771C33.3546 2.92658 32.7631 2.93362 32.1717 2.94067H32.1711C31.8752 2.94419 31.5794 2.94771 31.2836 2.94771C31.3314 6.82245 31.3872 10.6812 31.443 14.5359L31.443 14.537L31.4431 14.5383L31.4431 14.5396L31.4431 14.5409L31.4432 14.5421L31.4432 14.5434ZM82.5991 13.027V13.0279C82.607 13.7725 82.6149 14.521 82.6307 15.2773C82.1869 15.2139 81.8066 15.1823 81.4262 15.1823C79.7464 15.0872 78.1299 15.3407 76.6402 16.1331C76.3232 16.2916 76.2281 16.4818 76.2281 16.8304C76.2915 19.999 76.3232 23.1359 76.3549 26.2729L76.3549 26.2758C76.3549 26.6244 76.4817 26.8146 76.7987 26.9731C78.1299 27.6387 79.5879 27.8605 81.0776 27.7972C82.3771 27.7021 83.6449 27.4168 84.8177 26.7829C85.0396 26.6561 85.1029 26.4976 85.1029 26.2441C85.0079 20.317 84.9128 14.3582 84.8494 8.43106C84.8494 8.1458 84.7543 8.01901 84.5007 7.89223C83.2329 7.22662 81.9017 6.97306 80.4754 7.00476C79.1125 7.03645 77.8129 7.32171 76.6085 7.98733C76.3866 8.11411 76.2915 8.27259 76.2915 8.55785C76.3074 9.14413 76.3153 9.73834 76.3232 10.3325C76.3312 10.9269 76.3391 11.5213 76.3549 12.1078C76.3549 12.1518 76.3617 12.2028 76.369 12.2573L76.3691 12.2575C76.3775 12.3205 76.3866 12.3885 76.3866 12.4564C76.767 12.4564 77.1473 12.4485 77.5277 12.4406C77.908 12.4326 78.2884 12.4247 78.6687 12.4247C78.6687 11.5372 78.6687 10.7132 78.637 9.85737C78.637 9.57211 78.7321 9.47702 78.9857 9.38194C79.9682 9.06498 80.9191 9.03328 81.9334 9.25516C82.3771 9.35024 82.6624 9.50872 82.5673 10.0159C82.5462 10.1848 82.5532 10.3538 82.5602 10.5228V10.523C82.5638 10.6075 82.5673 10.692 82.5673 10.7765C82.5832 11.5221 82.591 12.2676 82.5989 13.0171L82.599 13.0188L82.599 13.0205L82.599 13.0221L82.5991 13.0238L82.5991 13.0254L82.5991 13.027ZM78.6687 24.9762C78.6687 23.8035 78.6687 22.6307 78.637 21.458C78.637 20.317 78.637 19.1759 78.5102 18.0666C78.5102 17.813 78.6053 17.6862 78.8589 17.5911C79.9999 17.2425 81.1727 17.2425 82.3137 17.5594C82.5673 17.6228 82.6307 17.7496 82.6307 17.9715C82.6616 20.2304 82.6926 22.5194 82.7235 24.8092L82.7237 24.8242L82.7258 24.9762C82.7258 25.103 82.599 25.3249 82.4722 25.3566C81.3312 25.7369 80.1584 25.7686 78.9857 25.42C78.7638 25.3566 78.6687 25.2298 78.6687 24.9762ZM66.7601 9.68334L66.7595 9.68337C66.4821 9.69118 66.2084 9.69889 65.927 9.69889C65.927 9.35412 65.9193 9.00934 65.9114 8.66073L65.9114 8.65989C65.9034 8.30373 65.8953 7.94355 65.8953 7.57529C66.4341 7.57529 67.0047 7.57529 67.6069 7.54359C67.591 6.95722 67.5831 6.37877 67.5752 5.80033L67.5752 5.79819C67.5672 5.22045 67.5593 4.64271 67.5435 4.05706C67.9397 4.05706 68.32 4.04914 68.7004 4.0412C69.0807 4.03328 69.4611 4.02536 69.8573 4.02536C69.8573 5.08423 69.8846 6.1158 69.9138 7.22139L69.9139 7.2222L69.9207 7.48019C70.5822 7.46444 71.228 7.45651 71.8699 7.44864H71.87C72.5198 7.44067 73.1655 7.43275 73.8192 7.41681C73.8192 7.78507 73.8273 8.14525 73.8353 8.50141L73.8354 8.50226C73.8432 8.85086 73.8509 9.19564 73.8509 9.54041C73.1987 9.55633 72.5625 9.56423 71.9222 9.57218L71.9205 9.57221L71.9187 9.57224L71.9171 9.57227H71.9167H71.9162H71.9157H71.9153H71.9149C71.2818 9.58014 70.6446 9.58806 69.9841 9.60381V10.0792C70.0161 12.597 70.0482 15.1067 70.0803 17.6165L70.1517 23.2055L70.1742 24.9762C70.1742 25.3249 70.2693 25.4834 70.618 25.5151C70.8841 25.5355 71.1534 25.5593 71.424 25.5832C71.9914 25.6332 72.5639 25.6838 73.1219 25.7052C73.3512 25.7261 73.5942 25.7195 73.8509 25.7126C73.9846 25.7089 74.1219 25.7052 74.263 25.7052C74.263 25.9202 74.2666 26.1278 74.2702 26.3319V26.3322C74.2772 26.7299 74.2839 27.114 74.263 27.5119C74.263 27.6387 73.946 27.7972 73.7558 27.7972C73.0585 27.8289 72.3612 27.8605 71.6956 27.8289C70.5229 27.7655 69.3501 27.5119 68.2725 27.0048C67.9872 26.878 67.8604 26.6878 67.8604 26.3708C67.7971 20.9826 67.7337 15.5943 67.6386 10.206V9.6672C67.3336 9.6672 67.0449 9.67532 66.7601 9.68334ZM44.9186 8.26961L44.9128 7.86054C44.1521 7.89223 43.3914 7.89223 42.6307 7.89223C42.7236 14.4267 42.8165 20.931 42.9094 27.4345L42.9096 27.4467L42.9101 27.4832L42.9159 27.8922C43.3155 27.8922 43.699 27.8841 44.0785 27.8762H44.0792H44.0798H44.0804H44.0807H44.0809H44.0812H44.0814H44.0817H44.082C44.4539 27.8683 44.8221 27.8605 45.198 27.8605C45.1051 21.326 45.0122 14.8218 44.9193 8.31824L44.9191 8.30605L44.9186 8.26961ZM63.7401 27.607C63.3597 27.607 62.9873 27.6149 62.6149 27.6228C62.2424 27.6308 61.87 27.6387 61.4897 27.6387L61.4838 27.2296C61.3907 20.7098 61.2975 14.1895 61.2044 7.63867C61.5648 7.63867 61.9329 7.63093 62.3049 7.62311L62.3057 7.62308H62.3058H62.3059C62.6862 7.61507 63.0705 7.60697 63.4548 7.60697C63.5499 14.2631 63.645 20.9192 63.7401 27.607ZM43.6924 1.25198C43.32 1.25992 42.9476 1.26784 42.5672 1.26784C42.5989 2.25011 42.5989 3.16902 42.5989 4.11958V4.12045C42.9793 4.12045 43.3517 4.11253 43.7241 4.1046C44.0966 4.09668 44.469 4.08876 44.8493 4.08876C44.8493 3.61332 44.8414 3.13788 44.8335 2.66245L44.8334 2.66071C44.8255 2.18585 44.8176 1.711 44.8176 1.23614C44.4373 1.23614 44.0648 1.24406 43.6924 1.25198ZM61.1092 1.01426C61.4896 1.01426 61.862 1.00634 62.2344 0.998404C62.6068 0.990482 62.9793 0.98256 63.3596 0.98256C63.3596 1.45742 63.3675 1.93227 63.3754 2.40713L63.3755 2.40887L63.3755 2.41061C63.3834 2.88546 63.3913 3.36032 63.3913 3.83517C63.011 3.83517 62.6385 3.8431 62.2661 3.85102C61.8937 3.85895 61.5213 3.86687 61.1409 3.86687C61.1409 3.39533 61.1331 2.93159 61.1253 2.46405C61.1173 1.98877 61.1092 1.50957 61.1092 1.01426ZM45.4833 30.6498L29.1283 30.8716V32.4881L45.515 32.2663L45.4833 30.6498ZM57.6862 26.878L57.6861 26.8779L57.686 26.8779C57.4959 26.8145 57.3058 26.7512 57.1157 26.7195C56.7036 26.5927 56.2916 26.4976 55.8479 26.4025C55.4041 26.3075 54.9921 26.2124 54.5483 26.0856C54.5483 25.6577 54.5404 25.206 54.5325 24.7544C54.5246 24.3027 54.5166 23.851 54.5166 23.4231C55.1189 23.1696 55.6894 22.9477 56.2599 22.7258C56.2916 22.71 56.3233 22.7021 56.355 22.6941C56.3867 22.6862 56.4184 22.6783 56.4501 22.6624C56.4818 22.6307 56.5135 22.6307 56.5452 22.6307C56.6403 22.5832 56.7433 22.5436 56.8463 22.504L56.8464 22.5039C56.9494 22.4643 57.0523 22.4247 57.1474 22.3772C57.4643 22.2504 57.5911 22.0285 57.5911 21.6482C57.5277 17.8764 57.4643 14.1046 57.4326 10.3645V9.82567C57.7376 9.82567 58.0344 9.81755 58.3273 9.80953L58.3279 9.8095C58.6131 9.80169 58.8945 9.79398 59.1759 9.79398C59.1759 9.30269 59.168 8.82725 59.1601 8.35182C59.1521 7.87638 59.1442 7.40094 59.1442 6.90966C58.7005 6.87798 58.3201 6.87798 57.9715 7.22662C57.7574 7.46216 57.4998 7.68324 57.2478 7.89962C57.1267 8.00353 57.0069 8.10636 56.8938 8.20919C56.4501 7.98733 55.9746 7.79715 55.4358 7.67037H55.4041C55.3735 7.66015 55.3428 7.65323 55.3122 7.64747C55.2953 7.6443 55.2784 7.64149 55.2615 7.63867C55.2333 7.63398 55.2052 7.62928 55.177 7.62293C55.1576 7.61857 55.1382 7.61343 55.1189 7.60697C54.5166 7.44849 53.8827 7.3851 53.2805 7.3851H53.0586H52.8368C52.2029 7.4168 51.6006 7.48019 50.9984 7.67037L50.9983 7.6704C50.9032 7.70208 50.8082 7.73375 50.7132 7.73375H50.6815C50.1743 7.89223 49.6672 8.08241 49.2552 8.33597C49.1554 8.25281 49.0556 8.17184 48.9564 8.09134L48.9562 8.09119C48.6773 7.86488 48.4029 7.64223 48.1458 7.3851C47.7971 7.03645 47.4168 7.03645 46.9731 7.09984C46.9731 7.57138 46.9809 8.04292 46.9887 8.51832V8.51861C46.9967 9.00178 47.0048 9.48894 47.0048 9.98415C47.5753 9.98415 48.1458 9.98415 48.748 9.95246V10.4913C48.8114 14.2631 48.8748 18.0349 48.9065 21.775C48.9065 22.1553 49.0333 22.3772 49.3819 22.504C49.477 22.5357 49.58 22.5753 49.683 22.6149C49.7861 22.6545 49.8891 22.6941 49.9842 22.7258C50 22.7258 50.0159 22.7338 50.0317 22.7417C50.0475 22.7496 50.0634 22.7575 50.0792 22.7575C50.1109 22.7734 50.1426 22.7813 50.1743 22.7892C50.206 22.7971 50.2377 22.8051 50.2694 22.8209C50.8399 23.0428 51.4105 23.2647 52.0127 23.4865C52.0127 23.9144 52.0206 24.3661 52.0285 24.8177C52.0365 25.2694 52.0444 25.7211 52.0444 26.149C51.8225 26.2124 51.6086 26.2678 51.3946 26.3233C51.1807 26.3788 50.9667 26.4342 50.7449 26.4976C50.3328 26.5927 49.8891 26.7195 49.5087 26.8463L48.9382 27.0364C47.607 27.4802 47.607 27.5436 47.6387 28.9382C47.6704 30.4596 47.7021 32.0127 47.7021 33.5341C47.7021 33.851 47.7971 34.0095 48.0824 34.1363C49.6038 34.8653 51.1886 35.1823 52.8685 35.1823H53.439H54.0095C55.6894 35.1189 57.2742 34.7702 58.7639 34.0095C59.0491 33.8827 59.1442 33.6926 59.1442 33.3756C59.1125 31.8542 59.0808 30.3011 59.0808 28.7797L59.0806 28.7751C59.0174 27.3217 59.016 27.2896 57.6862 26.878ZM54.5483 9.69889C54.8336 9.79398 54.9604 9.92076 54.9604 10.2377C54.9604 11.9176 54.9921 13.5975 55.0238 15.2773C55.0395 16.1282 55.0474 16.9791 55.0553 17.8262L55.0554 17.8285V17.8291C55.0633 18.6848 55.0712 19.5366 55.0872 20.3803C55.0872 20.6656 55.0238 20.8241 54.7385 20.8875C54.2314 21.046 53.7242 21.1411 53.2171 21.1411C52.71 21.1411 52.2029 21.0777 51.6957 20.9192C51.4105 20.8558 51.3471 20.6973 51.3154 20.412C51.3154 18.7005 51.2837 16.9889 51.252 15.309C51.2361 14.4701 51.2282 13.6312 51.2203 12.7923L51.2203 12.7892C51.2124 11.9493 51.2044 11.1093 51.1886 10.2694C51.1886 9.95246 51.2837 9.79398 51.6006 9.69889C52.0761 9.54041 52.5832 9.47702 53.0586 9.44532C53.5658 9.47702 54.0412 9.54041 54.5483 9.69889ZM52.5198 32.9953C51.8542 32.9319 51.1569 32.7734 50.4913 32.6149C50.2377 32.5515 50.1109 32.4247 50.1426 32.1395C50.1426 31.1886 50.1426 30.2377 50.1109 29.3185C50.1109 29.0333 50.206 28.9065 50.4596 28.8431C51.4105 28.5262 52.393 28.3677 53.3756 28.3677C54.3582 28.3677 55.309 28.4945 56.2916 28.7797C56.5452 28.8431 56.6403 28.9699 56.6403 29.2551C56.6403 30.206 56.6403 31.1569 56.672 32.0761C56.672 32.3613 56.5769 32.4881 56.3233 32.5515C56.253 32.5682 56.1827 32.5853 56.1124 32.6026C56.0558 32.6165 55.9992 32.6305 55.9426 32.6445C55.4029 32.7779 54.8592 32.9122 54.2948 32.9636C54.0095 32.9953 53.7242 33.0269 53.4073 33.0269C53.0903 33.0269 52.8051 33.0269 52.5198 32.9953ZM34.5958 38.8747C34.3501 37.5514 34.1045 36.2282 33.8509 34.897C33.0268 34.897 32.2028 34.897 31.3153 34.9287C31.2202 35.3724 31.1568 35.7845 31.0934 36.1965C30.7449 38.5411 30.3647 40.9174 29.9845 43.2937L29.9841 43.2964C29.8247 44.3395 29.6587 45.3892 29.4921 46.4426C29.2943 47.6936 29.0957 48.9498 28.9064 50.206C28.7023 51.5665 28.4891 52.9179 28.2766 54.2651C28.093 55.4287 27.9099 56.5892 27.7337 57.7496C27.6651 58.1437 27.6058 58.5378 27.5458 58.937C27.4948 59.2761 27.4432 59.6189 27.385 59.9683C27.7852 59.9683 28.1774 59.9602 28.5656 59.9522C28.9459 59.9444 29.3223 59.9366 29.6988 59.9366C29.889 58.4469 30.0791 56.9572 30.2693 55.4992C30.3327 55.1822 30.4278 55.1189 30.7131 55.1189C31.2084 55.1189 31.6956 55.1108 32.1789 55.1028C32.6543 55.095 33.1258 55.0872 33.5974 55.0872C33.8985 55.0872 34.1917 55.0793 34.4848 55.0713C34.778 55.0634 35.0712 55.0555 35.3723 55.0555C35.6575 56.6714 35.911 58.2556 36.1644 59.8398L36.1647 59.8415C36.565 59.8415 36.9571 59.8334 37.3453 59.8254C37.7256 59.8176 38.102 59.8098 38.4785 59.8098C38.4627 59.683 38.4389 59.5642 38.4151 59.4453C38.3914 59.3264 38.3676 59.2076 38.3517 59.0808C38.114 57.7813 37.8684 56.4738 37.6227 55.1664C37.3771 53.8589 37.1314 52.5515 36.8937 51.252C36.4267 48.8344 35.9835 46.393 35.5434 43.9691C35.4758 43.5965 35.4082 43.2243 35.3406 42.8526C35.0871 41.5213 34.8414 40.198 34.5958 38.8747ZM57.5594 50.3986L57.5593 50.3962C57.5276 47.7021 57.4325 41.3629 57.3692 38.6688C57.3692 38.3201 57.2424 38.13 56.9571 38.0032C55.8161 37.4643 54.5799 37.2425 53.3121 37.2425C51.9809 37.2742 50.7131 37.496 49.5086 38.13C49.2234 38.2567 49.16 38.4469 49.16 38.7639C49.2551 44.1521 49.3818 53.1854 49.4452 58.5737C49.4452 58.9223 49.572 59.1125 49.8573 59.2393C50.9666 59.7464 52.1394 60 53.3438 60C54.7384 60 56.0696 59.7464 57.3058 59.1125C57.591 58.9857 57.6861 58.7956 57.6861 58.4786C57.6227 55.7853 57.5911 53.092 57.5594 50.3986ZM51.3153 40.0951V39.5879C52.5514 39.1125 53.7875 39.0808 55.0554 39.3978C55.1505 39.4295 55.2772 39.6513 55.2772 39.7781C55.3089 40.9192 55.3406 42.0602 55.3406 43.2013C55.3723 46.6561 55.4674 53.7243 55.5308 57.1474V57.6228C54.263 58.0983 53.0268 58.1299 51.7907 57.7496C51.6956 57.7496 51.6005 57.5594 51.5688 57.4326C51.5372 57.1791 51.5372 56.9257 51.5372 56.6722V56.672C51.5054 54.516 51.4658 51.4482 51.4262 48.3806C51.3866 45.315 51.347 42.2497 51.3153 40.0951ZM46.7983 38.3605C46.7905 38.0751 46.7828 37.7933 46.7828 37.496C46.7256 37.496 46.6749 37.4832 46.6307 37.4719C46.5767 37.4582 46.5323 37.4469 46.4975 37.4643C46.3327 37.458 46.1679 37.4504 46.0031 37.4428C45.3438 37.4124 44.6845 37.3819 44.0253 37.4326C42.8525 37.496 41.7115 37.7496 40.6338 38.2567C40.3486 38.3835 40.2218 38.542 40.2218 38.8906C40.3169 44.5008 40.4437 53.7876 40.507 59.3978V59.8098C40.8756 59.8098 41.236 59.8017 41.5925 59.7937C41.9411 59.7859 42.2859 59.7781 42.6307 59.7781C42.5356 54.2948 42.4088 45.1664 42.3454 39.7147C43.3933 39.3275 44.4739 39.3168 45.5519 39.3061C45.9739 39.3019 46.3954 39.2977 46.8145 39.271C46.8145 38.95 46.8064 38.6533 46.7983 38.3605ZM72.7574 59.8257C73.1061 59.8177 73.4547 59.8098 73.8192 59.8098C73.7865 56.9603 73.7368 53.036 73.6877 49.1564C73.6418 45.5275 73.5963 41.9375 73.5657 39.3027C74.7384 38.8273 75.9112 38.8273 77.0839 39.0808C77.4009 39.1442 77.5276 39.3027 77.5276 39.6513C77.56 42.3078 77.609 46.0322 77.6576 49.7287C77.7041 53.2654 77.7502 56.7766 77.7812 59.3027V59.7781C78.1457 59.7781 78.4944 59.7702 78.843 59.7623C79.1917 59.7544 79.5403 59.7464 79.9048 59.7464V59.3661C79.8097 53.7243 79.6829 43.962 79.6196 38.3201C79.6196 38.0349 79.5245 37.8764 79.2709 37.7496C78.0982 37.1791 76.862 36.9572 75.5942 36.9572C74.263 36.9889 72.9952 37.2108 71.7907 37.8447C71.5055 37.9715 71.4104 38.1616 71.4104 38.4786C71.5054 44.0887 71.6322 53.8193 71.6956 59.4295V59.8415C72.0601 59.8415 72.4088 59.8336 72.7574 59.8257ZM61.0617 37.4802C60.7131 37.4881 60.3644 37.496 59.9999 37.496C59.9999 37.6862 59.9999 37.813 59.9682 37.9398C60.0633 43.5816 60.1901 52.8368 60.2535 58.4469C60.2535 58.7639 60.3803 58.954 60.6655 59.0808C61.7749 59.588 62.9159 59.8415 64.1203 59.8415C65.515 59.8732 66.8462 59.6196 68.0823 58.9857C68.3676 58.8273 68.4627 58.6371 68.4627 58.3201C68.3676 52.71 68.2408 43.4548 68.1774 37.8447V37.4009C67.8089 37.4009 67.4484 37.409 67.0919 37.4171C66.7433 37.4249 66.3986 37.4326 66.0538 37.4326C66.1489 42.916 66.2757 52.0127 66.3391 57.496C65.1663 57.9398 63.9936 57.9398 62.7891 57.6862C62.4722 57.5911 62.3771 57.4326 62.3771 57.1157C62.3454 54.5325 62.2979 51.0301 62.2503 47.5278C62.2028 44.0254 62.1552 40.523 62.1235 37.9398V37.4643C61.759 37.4643 61.4104 37.4723 61.0617 37.4802ZM91.3153 58.0032L90.9983 34.1046L88.8747 34.168C88.8906 35.2615 88.8906 35.4437 88.8906 35.626C88.8906 35.8082 88.8906 35.9905 88.9064 37.084H88.7796C86.8145 36.5452 84.9761 36.8304 83.2012 37.6862C82.9159 37.813 82.8208 38.0032 82.8208 38.3201C82.9159 43.7084 83.0427 52.7417 83.1061 58.1299C83.1061 58.4786 83.2012 58.6371 83.5181 58.7956C84.6275 59.3027 85.7685 59.5563 86.973 59.5563C88.3359 59.5563 89.6671 59.3344 90.9032 58.7005C91.1885 58.542 91.3153 58.3518 91.3153 58.0032ZM89.0732 48.3008C89.0825 48.9375 89.0906 49.4935 89.0966 49.9208C89.1045 50.4962 89.1104 51.0716 89.1163 51.646C89.1342 53.3814 89.1519 55.108 89.2234 56.7987C89.2551 57.0523 89.16 57.1791 88.9064 57.2425C87.797 57.5911 86.7194 57.5911 85.6101 57.3059C85.3565 57.2425 85.2614 57.1474 85.2614 56.8621C85.2297 54.5642 85.1822 51.3471 85.1346 48.1299C85.0871 44.9128 85.0395 41.6957 85.0078 39.3978C84.9761 39.1442 85.0712 39.0174 85.3248 38.954C86.4341 38.6371 87.5118 38.6371 88.5894 38.8906C88.8747 38.9857 88.9698 39.0808 88.9698 39.3978C88.9698 41.2527 89.0326 45.5365 89.0732 48.3008ZM32.4352 39.4767C32.4553 39.3039 32.4761 39.1254 32.805 39.2076C33.0367 41.8281 33.489 44.4185 33.942 47.0127C34.2944 49.031 34.6473 51.0516 34.8969 53.0903C34.1837 53.1062 33.4785 53.1141 32.7733 53.122C32.0681 53.13 31.3628 53.1379 30.6497 53.1537L31.3153 48.5895L31.3779 48.1763C31.6737 46.2259 31.9659 44.2995 32.2028 42.3455C32.2969 41.6627 32.3386 40.9625 32.3799 40.2707C32.3941 40.0312 32.4083 39.7927 32.4246 39.5563C32.4289 39.5305 32.432 39.5037 32.4352 39.4767Z" fill="white"/>
<path fill-rule="evenodd" clip-rule="evenodd" d="M22.1236 53.1855C22.1553 53.439 22.1553 53.6609 22.1553 53.9145C22.1553 53.9462 22.1553 53.9778 22.187 54.0412V54.2314C22.2187 54.8019 22.0285 55.1189 21.5214 55.3725C21.4263 55.4359 21.3629 55.4676 21.2678 55.4992C21.252 55.4992 21.2441 55.5072 21.2361 55.5151C21.2282 55.523 21.2203 55.5309 21.2044 55.5309C21.1886 55.5468 21.1648 55.5547 21.1411 55.5626C21.1173 55.5705 21.0935 55.5785 21.0777 55.5943L20.8875 55.6894C20.2853 55.9747 19.6513 56.2283 19.0174 56.4501C18.9857 56.466 18.954 56.4739 18.9223 56.4818C18.8906 56.4897 18.8589 56.4977 18.8273 56.5135C18.7639 56.5452 18.6688 56.5769 18.5737 56.6086C18.4945 56.6244 18.4232 56.6482 18.3519 56.672C18.2805 56.6958 18.2092 56.7195 18.13 56.7354C18.1117 56.7536 18.104 56.7613 18.0947 56.7646C18.0878 56.7671 18.08 56.7671 18.0666 56.7671C16.355 57.2425 14.6117 57.4961 12.7734 57.5595C12.4564 57.5912 12.1395 57.5912 11.8225 57.5912H10.8716C9.03328 57.5912 7.25832 57.3693 5.54675 56.9255H5.48336C5.40412 56.9097 5.33281 56.8859 5.26149 56.8622C5.19017 56.8384 5.11886 56.8146 5.03962 56.7988L4.75436 56.7037C4.72265 56.6878 4.69094 56.6799 4.65924 56.672C4.62755 56.6641 4.59587 56.6561 4.56418 56.6403C3.93027 56.4184 3.29635 56.1965 2.66244 55.9113L2.47227 55.8162C2.45642 55.8004 2.43265 55.7924 2.40888 55.7845C2.3851 55.7766 2.36133 55.7687 2.34548 55.7528C2.32964 55.7528 2.32172 55.7449 2.31379 55.737C2.30587 55.729 2.29794 55.7211 2.28209 55.7211C2.187 55.6577 2.12361 55.626 2.02852 55.5943C1.5214 55.3408 1.33122 55.0238 1.33122 54.4533V54.2631V54.168V53.439C1.31528 52.18 1.29934 50.9289 1.2834 49.6779C1.26765 48.4408 1.25189 47.2037 1.23613 45.9588V45.3249C1.20444 45.008 1.20444 44.6593 1.20444 44.3424C1.20444 43.9303 1.29953 43.6767 1.58479 43.4549C1.86886 43.1077 2.40438 42.9176 3.37917 42.5717L3.39144 42.5674C4.75436 41.9969 6.18067 41.5848 7.67037 41.3313C8.24084 41.2045 8.81131 41.046 9.38179 40.8876L9.38194 40.8875C9.36608 40.0951 9.35816 39.2631 9.35024 38.4311C9.34232 37.5991 9.33439 36.7671 9.31854 35.9747L7.79715 35.4042C7.03645 35.1823 6.27575 34.9287 5.51505 34.6435C4.81775 34.3899 4.37401 34.1997 4.08875 33.9779C3.7084 33.7243 3.54992 33.3439 3.54992 32.7734C3.51823 29.9208 3.48653 27.0365 3.45483 24.1522C3.42313 21.949 3.39144 19.7537 3.35974 17.5585C3.32805 15.3639 3.29635 13.1693 3.26466 10.9668C2.70183 10.9668 2.15531 10.9749 1.61683 10.983C1.09397 10.9908 0.578678 10.9985 0.0633905 10.9985C0.047619 10.0994 0.039697 9.22385 0.0318089 8.35235C0.0238482 7.47259 0.0159214 6.59692 0 5.70527C0.824091 5.57849 1.5214 5.57849 2.15531 6.2441C2.6647 6.75349 3.24211 7.21752 3.81084 7.67456C3.91449 7.75785 4.01784 7.84091 4.12044 7.92397C6.02219 6.9097 8.49445 6.27579 11.0301 6.2124H11.0935H11.1569C13.6926 6.18071 16.1965 6.75122 18.13 7.73379C18.3182 7.56439 18.512 7.39779 18.7064 7.23066C19.1668 6.83491 19.6306 6.43622 20.0317 5.99053C20.6656 5.32492 21.3629 5.29323 22.187 5.38831C22.203 6.26787 22.2109 7.14742 22.2189 8.03512C22.2268 8.90683 22.2347 9.78638 22.2504 10.6815C21.7388 10.6815 21.2348 10.6891 20.7198 10.6968C20.1819 10.7049 19.6321 10.7132 19.0491 10.7132C19.0808 12.9157 19.1046 15.1103 19.1283 17.3049C19.1521 19.5002 19.1759 21.6954 19.2076 23.8986L19.2076 23.9013C19.2393 26.7847 19.271 29.6681 19.3344 32.5515C19.3661 33.1221 19.2076 33.5024 18.8273 33.756C18.5737 33.9779 18.13 34.168 17.4326 34.4533C16.7037 34.7702 15.943 35.0238 15.1823 35.2773L15.1822 35.2774C15.0066 35.3476 14.8267 35.4222 14.6441 35.4979C14.3322 35.6271 14.0124 35.7597 13.6926 35.8796C13.7085 36.6595 13.7164 37.4953 13.7243 38.335C13.7322 39.1674 13.7402 40.0035 13.7559 40.7924C14.0412 40.8558 14.3265 40.9272 14.6118 40.9985C14.897 41.0698 15.1823 41.1411 15.4675 41.2045C16.9572 41.4264 18.3835 41.8067 19.7781 42.3455C20.7607 42.6625 21.2995 42.8527 21.6165 43.2013C21.9017 43.4232 22.0285 43.6767 22.0285 44.0888V45.0714V45.7053C22.0391 46.5376 22.0461 47.3665 22.0531 48.1942C22.0672 49.8564 22.0813 51.5139 22.1236 53.1855ZM7.45399 53.1376C8.28945 53.3085 9.1296 53.4803 9.98415 53.5658C10.5864 53.5975 11.1569 53.6292 11.7591 53.6926C12.3613 53.6609 12.9319 53.6292 13.5024 53.5658C14.4639 53.4672 15.4253 53.2343 16.3868 53.0015C16.6615 52.935 16.9361 52.8685 17.2108 52.8051C17.6545 52.6783 17.8764 52.4565 17.8447 51.9176C17.7813 50.1744 17.7813 48.4311 17.7813 46.6878C17.7813 46.149 17.5911 45.9271 17.1157 45.8004C15.3724 45.2932 13.5975 45.0397 11.8542 45.0397H11.6323H11.4105C9.6355 45.0714 7.89223 45.3883 6.14897 45.9271C5.67353 46.0539 5.48336 46.3075 5.51505 46.8146C5.57845 48.5579 5.57845 50.3012 5.57845 52.0444C5.57845 52.5832 5.76862 52.8051 6.24406 52.9002C6.647 52.9725 7.04995 53.055 7.45399 53.1376ZM8.49445 31.2837C9.38194 31.5373 10.2377 31.6641 11.0935 31.6958C11.107 31.6958 11.1147 31.6958 11.1216 31.6982C11.1309 31.7015 11.1387 31.7092 11.1569 31.7275H11.4739H11.7908H11.8225C12.6783 31.6641 13.5341 31.5373 14.3899 31.252C14.8653 31.0935 15.0238 30.84 15.0238 30.3012C14.961 27.1943 14.9293 24.0565 14.8979 20.949L14.897 20.8558C14.8864 19.8159 14.8722 18.7795 14.8581 17.7442C14.83 15.6874 14.8019 13.6352 14.8019 11.569C14.8019 10.9351 14.58 10.7132 14.0095 10.5547C13.1537 10.3011 12.2979 10.1744 11.4422 10.1744H11.4105H11.1886H10.9667H10.935C10.0792 10.2061 9.22346 10.3645 8.36767 10.6181C7.79715 10.7766 7.60697 11.0301 7.60697 11.6324C7.67037 14.7386 7.70206 17.813 7.73375 20.9192C7.74427 21.9605 7.75827 23.0052 7.7723 24.0511C7.80054 26.1571 7.82885 28.2679 7.82885 30.3645C7.82885 30.8717 7.98733 31.1252 8.49445 31.2837ZM91.0617 30.0159L61.5847 30.4279L61.6164 32.0444L91.0934 31.6324L91.0617 30.0159Z" fill="#E52420"/>
</svg>
